<svg width="24" height="24" viewBox="0 0 24 24" fill="none" xmlns="http://www.w3.org/2000/svg">
<path d="M17.24 19.399V14.595H18.84V21H4.381V14.595H5.979V19.399H17.24ZM7.582 17.8H15.637V16.196H7.582V17.8ZM7.777 14.16L15.636 15.801L15.976 14.249L8.115 12.607L7.777 14.16V14.16ZM8.795 10.366L16.076 13.764L16.754 12.301L9.473 8.902L8.795 10.356V10.366V10.366ZM10.832 6.777L16.998 11.919L18.016 10.703L11.854 5.563L10.838 6.776L10.832 6.777V6.777ZM14.814 2.999L13.503 3.968L18.306 10.422L19.619 9.451L14.812 2.999H14.814V2.999Z" fill="black"/>
</svg>
