<svg width="750" height="750" viewBox="0 0 750 750" fill="none" xmlns="http://www.w3.org/2000/svg">
<path fill-rule="evenodd" clip-rule="evenodd" d="M615.264 110.974C617.797 111.213 620.143 109.75 622.243 108.318C628.08 104.335 634.367 98.906 633.983 91.8649C633.862 89.6288 633.053 87.525 632.244 85.4187C631.898 84.5173 631.551 83.6155 631.258 82.7027C629.729 77.9356 629.672 72.9092 629.615 67.8699C629.569 63.7366 629.522 59.5945 628.662 55.5796C628.354 54.1398 627.737 52.5042 626.319 52.0947C625.519 51.864 624.668 52.0984 623.87 52.332L598.371 59.7918C593.571 61.1961 592.543 67.4095 592.405 72.3949L592.031 85.9598C590.515 86.1492 589.077 85.557 587.638 84.9647C587.089 84.7386 586.54 84.5126 585.987 84.33C580.538 82.5321 573.95 85.5551 571.775 90.8505C569.601 96.1459 572.172 102.908 577.321 105.435C582.47 107.962 589.413 105.87 592.296 100.923C594.254 97.5638 594.37 93.4849 594.435 89.6L594.555 82.3055C594.6 79.5793 597.668 78.0675 600.261 77.2008C608.247 74.5313 616.307 72.0812 624.429 69.8541C625.231 69.634 626.229 69.4689 626.777 70.0932C627.074 70.4306 627.138 70.9058 627.19 71.3512L628.301 80.9015C628.466 82.3179 628.306 84.2225 626.908 84.5228C620.157 85.9729 614.155 90.5699 611.01 96.7003C609.67 99.3119 608.824 102.311 609.418 105.185C610.011 108.058 612.335 110.699 615.264 110.974ZM625.578 56.3434C625.863 56.6318 625.945 57.0567 626.014 57.4552L626.788 61.9383C626.992 63.1225 627.186 64.3945 626.67 65.4814C625.856 67.1984 623.694 67.715 621.818 68.0839C617.484 68.9361 613.206 70.067 609.02 71.4672C605.521 72.6375 602.089 73.9945 598.659 75.3509C598.369 75.4655 598.079 75.5801 597.789 75.6946C596.975 76.0161 595.853 76.2479 595.387 75.5118C595.27 75.3275 595.221 75.1096 595.181 74.8955C594.362 70.5483 596.376 65.8064 600.084 63.3516C602.126 61.9996 604.54 61.3363 606.907 60.6936L623.551 56.1754C624.239 55.9887 625.078 55.8385 625.578 56.3434ZM591.998 92.0932C591.928 96.295 590.912 101.099 587.175 103.133C584.209 104.746 580.337 103.971 577.647 101.944C574.486 99.5646 572.751 94.8258 575.061 91.6372C576.023 90.3091 577.526 89.4482 579.081 88.885C582.655 87.5913 586.738 87.7213 590.219 89.2397C590.774 89.4821 591.342 89.7815 591.663 90.289C591.996 90.8154 592.008 91.473 591.998 92.0932ZM146.501 101.482C146.933 102.808 148.814 102.757 150.176 102.438L162.561 99.5421C162.216 96.3267 161.589 93.1413 160.691 90.0338C160.426 89.118 160.107 88.1601 159.386 87.5333C158.271 86.5626 156.601 86.6969 155.132 86.8874L136.11 89.3548C134.803 89.5242 133.06 90.3704 133.558 91.5856C137.912 102.232 141.347 113.253 143.812 124.485C144.283 126.633 144.204 129.65 142.048 130.122C135.804 131.486 130.461 136.37 128.559 142.45C127.974 144.321 127.708 146.399 128.465 148.207C128.875 149.187 129.564 150.03 130.335 150.762C134.039 154.278 139.945 155.255 144.59 153.122C149.235 150.988 152.325 145.878 152.047 140.789C151.942 138.867 151.405 136.997 150.872 135.147L138.712 92.9693L154.812 91.7104C156.43 91.8008 157.113 94.0904 156.258 95.4614C155.404 96.8325 153.707 97.4028 152.119 97.7211C151.89 97.7669 151.659 97.8103 151.428 97.8537C150.052 98.112 148.652 98.3747 147.536 99.1947C146.814 99.7255 146.224 100.631 146.501 101.482Z" fill="#121212"/>
</svg>