<svg width="750" height="750" viewBox="0 0 750 750" fill="none" xmlns="http://www.w3.org/2000/svg">
<path fill-rule="evenodd" clip-rule="evenodd" d="M150.176 102.438C148.814 102.757 146.933 102.808 146.501 101.482C146.224 100.631 146.814 99.7255 147.536 99.1947C148.84 98.2367 150.531 98.0393 152.119 97.7211C153.707 97.4028 155.404 96.8325 156.258 95.4614C157.113 94.0903 156.43 91.8008 154.812 91.7103C149.446 92.13 144.079 92.5497 138.712 92.9693C142.765 107.029 146.819 121.088 150.872 135.147C151.405 136.997 151.942 138.867 152.047 140.789C152.325 145.878 149.235 150.988 144.59 153.122C139.945 155.255 134.039 154.278 130.335 150.762C129.564 150.03 128.875 149.187 128.465 148.207C127.708 146.399 127.974 144.321 128.559 142.45C130.461 136.37 135.804 131.486 142.048 130.122C144.204 129.65 144.283 126.633 143.812 124.484C141.347 113.253 137.912 102.232 133.558 91.5856C133.06 90.3704 134.803 89.5242 136.11 89.3548C142.45 88.5323 148.791 87.7098 155.132 86.8874C156.601 86.6969 158.271 86.5626 159.386 87.5333C160.107 88.1601 160.426 89.118 160.691 90.0338C161.589 93.1413 162.216 96.3266 162.561 99.542C158.433 100.507 154.305 101.473 150.176 102.438Z" fill="black"/>
</svg>