<svg width="750" height="750" viewBox="0 0 750 750" fill="none" xmlns="http://www.w3.org/2000/svg">
<path fill-rule="evenodd" clip-rule="evenodd" d="M622.243 108.318C620.143 109.75 617.797 111.213 615.264 110.974C612.335 110.699 610.011 108.058 609.418 105.185C608.824 102.311 609.67 99.3119 611.01 96.7003C614.155 90.5699 620.157 85.9729 626.908 84.5228C628.306 84.2225 628.466 82.3179 628.301 80.9015C627.931 77.7181 627.561 74.5347 627.19 71.3512C627.138 70.9058 627.074 70.4306 626.777 70.0932C626.229 69.4689 625.231 69.634 624.429 69.8541C616.307 72.0812 608.247 74.5313 600.261 77.2008C597.668 78.0675 594.6 79.5793 594.555 82.3055C594.515 84.737 594.475 87.1685 594.435 89.6C594.37 93.4849 594.254 97.5638 592.296 100.923C589.413 105.87 582.47 107.962 577.321 105.435C572.172 102.908 569.601 96.1459 571.775 90.8505C573.95 85.5551 580.538 82.5321 585.987 84.33C587.99 84.991 589.937 86.2215 592.031 85.9598C592.156 81.4382 592.28 76.9166 592.405 72.3949C592.543 67.4095 593.571 61.1961 598.371 59.7918C606.871 57.3052 615.37 54.8186 623.87 52.332C624.668 52.0984 625.519 51.864 626.319 52.0947C627.737 52.5042 628.354 54.1398 628.662 55.5796C630.57 64.4894 628.474 74.0254 631.258 82.7027C632.236 85.7484 633.81 88.6718 633.983 91.8649C634.367 98.906 628.08 104.335 622.243 108.318ZM626.014 57.4552C625.945 57.0567 625.863 56.6318 625.578 56.3434C625.078 55.8385 624.239 55.9887 623.551 56.1754C618.003 57.6814 612.455 59.1875 606.907 60.6936C604.54 61.3363 602.126 61.9996 600.084 63.3516C596.376 65.8064 594.362 70.5483 595.181 74.8955C595.221 75.1096 595.27 75.3275 595.387 75.5118C595.853 76.2479 596.975 76.0161 597.789 75.6946C601.51 74.2251 605.225 72.7364 609.02 71.4672C613.206 70.067 617.484 68.9361 621.818 68.0839C623.694 67.715 625.856 67.1984 626.67 65.4814C627.186 64.3945 626.992 63.1225 626.788 61.9383C626.53 60.4439 626.272 58.9496 626.014 57.4552ZM587.175 103.133C590.912 101.099 591.928 96.295 591.998 92.0932C592.008 91.473 591.996 90.8154 591.663 90.289C591.342 89.7815 590.774 89.4821 590.219 89.2397C586.738 87.7213 582.655 87.5913 579.081 88.885C577.526 89.4482 576.023 90.3091 575.061 91.6372C572.751 94.8258 574.486 99.5646 577.647 101.944C580.337 103.971 584.209 104.746 587.175 103.133Z" fill="#040404"/>
</svg>