<svg width="32" height="28" viewBox="0 0 32 28" fill="none" xmlns="http://www.w3.org/2000/svg">
<path d="M16 8C17 4.0525 20.7769 2.03687 29 2C29.1315 1.9995 29.2617 2.02503 29.3833 2.07511C29.5048 2.12519 29.6153 2.19883 29.7082 2.29179C29.8012 2.38474 29.8748 2.49518 29.9249 2.61673C29.975 2.73828 30.0005 2.86854 30 3V21C30 21.2652 29.8946 21.5196 29.7071 21.7071C29.5196 21.8946 29.2652 22 29 22C21 22 17.9094 23.6131 16 26C14.1019 23.625 11 22 3 22C2.3825 22 2 21.4969 2 20.8794V3C1.9995 2.86854 2.02503 2.73828 2.07511 2.61673C2.12519 2.49518 2.19883 2.38474 2.29179 2.29179C2.38475 2.19883 2.49518 2.12519 2.61673 2.07511C2.73828 2.02503 2.86854 1.9995 3 2C11.2231 2.03687 15 4.0525 16 8Z" stroke="black" stroke-width="3" stroke-linecap="round" stroke-linejoin="round"/>
<path d="M16 8V26" stroke="black" stroke-width="3" stroke-linecap="round" stroke-linejoin="round"/>
</svg>
