<svg width="36" height="36" viewBox="0 0 36 36" fill="none" xmlns="http://www.w3.org/2000/svg">
<path d="M19.41 18L27.7 9.71C27.8638 9.5187 27.9494 9.27262 27.9397 9.02095C27.93 8.76927 27.8257 8.53053 27.6476 8.35244C27.4695 8.17434 27.2307 8.07001 26.9791 8.06029C26.7274 8.05057 26.4813 8.13618 26.29 8.3L18 16.59L9.71 8.29C9.5217 8.1017 9.26631 7.99591 9 7.99591C8.7337 7.99591 8.47831 8.1017 8.29 8.29C8.1017 8.47831 7.99591 8.7337 7.99591 9C7.99591 9.2663 8.1017 9.5217 8.29 9.71L16.59 18L8.29 26.29C8.18532 26.3796 8.1003 26.49 8.04028 26.614C7.98026 26.7381 7.94652 26.8732 7.94121 27.0109C7.93589 27.1487 7.95909 27.286 8.00937 27.4143C8.05964 27.5427 8.1359 27.6592 8.23335 27.7567C8.33081 27.8541 8.44736 27.9304 8.57568 27.9806C8.70401 28.0309 8.84134 28.0541 8.97906 28.0488C9.11678 28.0435 9.25191 28.0098 9.37597 27.9497C9.50004 27.8897 9.61036 27.8047 9.7 27.7L18 19.41L26.29 27.7C26.4813 27.8638 26.7274 27.9494 26.9791 27.9397C27.2307 27.93 27.4695 27.8257 27.6476 27.6476C27.8257 27.4695 27.93 27.2307 27.9397 26.9791C27.9494 26.7274 27.8638 26.4813 27.7 26.29L19.41 18Z" fill="black"/>
</svg>
